<svg xmlns="http://www.w3.org/2000/svg" viewBox="0 0 115.39 132.57"><defs><style>.cls-1{fill:#1a1a1a;}</style></defs><g id="Layer_2" data-name="Layer 2"><g id="Слой_1" data-name="Слой 1"><g id="Layer_2-2" data-name="Layer 2"><g id="Слой_1-2" data-name="Слой 1"><polygon class="cls-1" points="100.87 25 57.65 50.09 46.91 43.9 90.3 18.82 80.5 13.14 37.12 38.23 24.74 31.02 68.13 5.93 57.74 0 3.52 31.27 57.65 62.55 111.95 31.27 100.87 25"/><polygon class="cls-1" points="115.39 48.72 115.39 37.2 61.43 68.3 61.43 68.3 61.43 132.57 61.43 132.57 115.39 101.47 115.39 89.95 73.46 114.1 73.46 72.86 115.39 48.72"/><polygon class="cls-1" points="53.87 96.4 53.87 96.4 53.87 67.96 41.93 61.09 41.93 89.18 12.03 72.08 12.03 43.82 0 36.86 0 101.38 12.03 108.34 12.03 83.68 41.93 100.78 41.93 125.61 53.87 132.57 53.87 107.65 53.87 107.65 53.87 96.4"/></g></g></g></g></svg>